<mxfile host="app.diagrams.net" modified="2024-07-13T07:29:44.476Z" agent="Mozilla/5.0 (Windows NT 10.0; Win64; x64) AppleWebKit/537.36 (KHTML, like Gecko) Chrome/126.0.0.0 Safari/537.36 Edg/126.0.0.0" version="24.6.5" etag="L6PU42HbZWh-yZVQ_AGq" type="github">
  <diagram name="Page-1" id="FP9EQc0Qz1mbx_LKiIjq">
    <mxGraphModel>
      <root>
        <mxCell id="0" />
        <mxCell id="1" parent="0" />
      </root>
    </mxGraphModel>
  </diagram>
</mxfile>
